<svg width="142" height="48" viewBox="0 0 142 48" fill="none" xmlns="http://www.w3.org/2000/svg">
<path d="M63.0132 17.2279L66.2176 16.4447V33.4581H63.0132V27.9606H57.4051V33.4581H54.2009V17.2279L57.4051 16.4428L57.4052 25.7359H63.0133L63.0132 17.2279ZM82.2655 26.914C82.2655 22.9087 79.4617 20.1076 75.643 20.1076C71.8243 20.1076 69.0205 22.9087 69.0205 26.914C69.0205 30.9188 71.8243 33.7199 75.643 33.7199C78.794 33.7199 81.1174 32.2541 81.9186 29.5316H78.4469C78.0198 30.4479 77.1917 30.9716 75.7767 30.9716C73.8006 30.9716 72.519 29.8721 72.1717 27.9608H82.2122C82.2391 27.6207 82.2655 27.2803 82.2655 26.914ZM75.643 22.8565C77.5124 22.8565 78.7407 23.9033 79.088 25.7359H72.198C72.5453 23.9033 73.7735 22.8565 75.643 22.8565ZM94.1474 25.5786H97.5122C97.1918 22.3065 94.4413 20.1076 90.8363 20.1076C86.9907 20.1076 84.1336 22.9087 84.1336 26.914C84.1336 30.9188 86.9907 33.7199 90.8363 33.7199C94.548 33.7199 97.3786 31.4164 97.539 27.9607H94.2276C93.9605 29.872 92.5185 30.8406 90.8363 30.8406C88.8333 30.8406 87.338 29.2697 87.338 26.914C87.338 24.5578 88.8333 22.9869 90.8363 22.9869C92.5185 22.9869 93.9341 23.851 94.1474 25.5786ZM107.819 23.1178V20.3694H104.347V16.4429L101.142 17.2262V20.3694H99.0062V23.1178H101.142V29.1911C101.142 32.6991 103.065 33.7199 105.709 33.7199C106.424 33.7147 107.134 33.6089 107.819 33.4059V30.6046C107.345 30.7593 106.849 30.839 106.35 30.8405C104.961 30.8405 104.347 30.2646 104.347 28.9815V23.1178L107.819 23.1178ZM112.357 17.7518C112.753 17.7518 113.141 17.6366 113.47 17.4208C113.799 17.2051 114.056 16.8985 114.208 16.5397C114.359 16.181 114.399 15.7862 114.321 15.4054C114.244 15.0246 114.053 14.6748 113.773 14.4002C113.493 14.1257 113.136 13.9387 112.748 13.8629C112.359 13.7872 111.957 13.826 111.591 13.9746C111.225 14.1232 110.912 14.3748 110.692 14.6976C110.472 15.0204 110.354 15.4 110.354 15.7883C110.347 16.048 110.394 16.3065 110.492 16.5478C110.591 16.7892 110.738 17.0084 110.925 17.1922C111.113 17.3759 111.336 17.5203 111.583 17.6165C111.829 17.7127 112.092 17.7588 112.357 17.7518ZM110.755 21.1526V33.4581H113.96V20.3694L110.755 21.1526ZM126.777 25.5786H130.142C129.822 22.3065 127.07 20.1076 123.466 20.1076C119.62 20.1076 116.763 22.9087 116.763 26.914C116.763 30.9188 119.62 33.7199 123.466 33.7199C127.178 33.7199 130.008 31.4164 130.169 27.9607H126.857C126.59 29.872 125.148 30.8406 123.466 30.8406C121.463 30.8406 119.968 29.2697 119.968 26.914C119.968 24.5578 121.463 22.9869 123.466 22.9869C125.148 22.9869 126.563 23.851 126.777 25.5786Z" fill="#002B52"/>
<path fill-rule="evenodd" clip-rule="evenodd" d="M25.0069 11.8752C22.2252 9.89655 23.9868 6.75732 23.9868 6.75732L46.7253 26.8531L37.5576 22.9673L27.8914 40.788C27.6737 40.6782 27.4397 40.564 27.1927 40.4434C24.0029 38.8862 18.6438 36.2701 18.0763 28.3309C9.15424 23.4643 11.8321 13.7876 14.0267 11.6948L22.6632 16.1963L25.0069 11.8752ZM26.5234 36.5272L26.5703 36.5516L33.7805 23.2585C34.1604 22.5581 34.2906 21.7535 34.1505 20.9723C34.0104 20.1911 33.608 19.4782 33.0073 18.9468L27.4545 14.0353L25.4847 17.6669L26.9467 21.9767L15.3872 15.9517C14.8288 17.7561 14.9268 19.6945 15.6645 21.4359C16.4022 23.1773 17.7338 24.6136 19.4318 25.4994C20.0533 25.8253 20.7152 26.0712 21.401 26.231C21.0397 28.2573 21.3404 30.3438 22.2602 32.1927C23.1801 34.0417 24.6721 35.5586 26.5234 36.5272ZM32.3164 21.5588C32.3164 22.5173 31.5237 23.2944 30.5459 23.2944C29.5681 23.2944 28.7754 22.5173 28.7754 21.5588C28.7754 20.6003 29.5681 19.8232 30.5459 19.8232C31.5237 19.8232 32.3164 20.6003 32.3164 21.5588Z" fill="#267AE1"/>
<path d="M128.534 13.9291H130.048V18.0002H130.927V13.9291H132.44V13.2002H128.534V13.9291Z" fill="#002B52"/>
<path d="M133.193 13.2002V18.0002H134.044V14.6955H134.09L135.442 17.9861H136.078L137.431 14.7025H137.477V18.0002H138.328V13.2002H137.242L135.789 16.6783H135.732L134.278 13.2002H133.193Z" fill="#002B52"/>
</svg>
