<?xml version="1.0" encoding="utf-8"?>
<!-- Generator: Adobe Illustrator 25.4.1, SVG Export Plug-In . SVG Version: 6.00 Build 0)  -->
<svg version="1.1" id="Layer_1" xmlns="http://www.w3.org/2000/svg" xmlns:xlink="http://www.w3.org/1999/xlink" x="0px" y="0px"
	 viewBox="0 0 95.8 183.9" style="enable-background:new 0 0 95.8 183.9;" xml:space="preserve">
<style type="text/css">
	.st0{fill:#032059;}
</style>
<path class="st0" d="M48,0.8l4.7,8.9c1.1,1.7,2.2,3.1,3.6,4.5c3.9,3.9,7.8,8.1,11.2,12.6C75.6,37.4,80.9,49.2,84.8,62
	c2.2,7.8,3.6,15.6,3.6,23.7c0.3,24-7.8,45-24.6,62c-2.8,2.8-5.6,5.3-8.7,7.5c-1.7,0-2.5-1.4-3.1-2.5c-1.4-2.2-2-4.5-2.5-7
	c-0.6-2.8-0.8-5.9-0.8-8.9v-1.4C48.8,135.5,47.4,1.4,48,0.8z"/>
<path class="st0" d="M48,0.9c-0.3-0.3-0.3,0-0.6,0c0,2-0.6,3.6-1.7,5.3c-1.1,1.7-2.8,2.8-4.2,4.2c-8.7,7.5-15.4,16.5-21,26.8
	C13.3,51,9.4,65.5,8.6,80.9c-0.6,5.6,1.7,25.1,3.6,30.7c4.7,15.1,13.4,27.7,24.6,38.6c2.8,2.5,5.6,5,8.7,7.5c0.8,0,0.8-0.8,1.1-1.4
	c0.3-1.1,0.6-2.5,0.8-3.9l2-14.5L48,0.9z"/>
<path class="st0" d="M52.7,161.5c0.3-2.2,1.4-4.2,2.5-5.9c-1.1-0.6-2-1.4-2.8-2.5c-0.6-0.8-1.1-2.2-1.4-3.4c-1.4-4.2-1.7-8.4-2-12.6
	v-2.5c-0.6,0.3-0.6,3.6-0.6,4.2c-0.3,4.5-0.8,8.9-1.7,13.1c-0.3,1.7-0.6,3.6-1.7,5c0,0.3,0,0.3,0,0.6c1.7,5,2.2,10.3,2.5,15.6v2
	c0,2.2,0,2,2,2.5c0.8,0.3,1.7,0.3,2.5,0.8c0.6,0,0.6-0.6,0.6-0.8l-0.3-3.4v-8.9C52.2,164.5,52.4,162.9,52.7,161.5L52.7,161.5z"/>
</svg>
