<?xml version="1.0" encoding="utf-8"?>
<!-- Generator: Adobe Illustrator 25.4.1, SVG Export Plug-In . SVG Version: 6.00 Build 0)  -->
<svg version="1.1" id="Layer_1" xmlns="http://www.w3.org/2000/svg" xmlns:xlink="http://www.w3.org/1999/xlink" x="0px" y="0px"
	 viewBox="0 0 153 151" style="enable-background:new 0 0 153 151;" xml:space="preserve">
<style type="text/css">
	.st0{fill:#032059;}
	.st1{opacity:0.405;fill:#032059;enable-background:new    ;}
</style>
<g>
	<path class="st0" d="M148.9,0.5H50v49.6h48.6c1.7,0,3.1,1.4,3.1,3.1v47.9H152V3.6c0-0.8-0.4-1.6-0.9-2.2S149.7,0.5,148.9,0.5z"/>
	<path class="st1" d="M50,0.5v49.6H3.7c-0.6,0-1.2-0.4-1.5-1c-0.2-0.6-0.1-1.3,0.4-1.7L50,0.5L50,0.5z M104.5,148.1
		c-0.5,0.5-1.1,0.6-1.7,0.4s-0.9-0.8-0.9-1.5v-45.8h50.2L104.5,148.1L104.5,148.1L104.5,148.1z"/>
	<path class="st1" d="M50,50.1h50.2c0.9,0,1.6,0.7,1.6,1.6v49.5H53.2c-1.8,0-3.1-1.4-3.1-3.1L50,50.1L50,50.1L50,50.1z"/>
</g>
</svg>
