<?xml version="1.0" encoding="utf-8"?>
<!-- Generator: Adobe Illustrator 22.0.1, SVG Export Plug-In . SVG Version: 6.00 Build 0)  -->
<svg version="1.1" id="Layer_1" xmlns="http://www.w3.org/2000/svg" xmlns:xlink="http://www.w3.org/1999/xlink" x="0px" y="0px"
	 viewBox="0 0 403 72" style="enable-background:new 0 0 403 72;" xml:space="preserve">
<style type="text/css">
	.st0{fill:#24272A;}
</style>
<path class="st0" d="M364.1,10.9h1.2l19,41.4c0.6,1.3,1.3,2.3,2.1,3.2c0.8,0.8,1.6,1.4,2.5,1.8c0.9,0.4,2.1,0.6,3.3,0.6h1.3v1.3
	h-27.4v-1.3h3.6c1.8,0,3.1-0.3,3.9-0.7c0.8-0.5,1.2-1.2,1.2-2.3c0-0.6-0.1-1.4-0.5-2.3c-0.3-0.9-1-2.5-2.1-4.9
	c-0.1-0.1-0.2-0.4-0.3-0.7c-0.2-0.3-0.3-0.6-0.5-0.9l-0.8-1.7h-20l-1.5,3.5c-0.5,1.2-0.8,2.4-0.8,3.6c0,1,0.3,2.1,0.9,3.1
	c0.6,1,1.3,1.8,2.3,2.3c0.6,0.4,1.1,0.6,1.6,0.7c0.5,0.1,1.2,0.2,2.1,0.3v1.3h-19.3v-1.3c1.4-0.2,2.5-0.4,3.3-0.8
	c0.8-0.3,1.8-0.9,2.8-1.7c2.4-1.9,4.7-5.3,7-10.4L364.1,10.9z M360.5,21.9L351.2,43H370L360.5,21.9z M295.1,36.8
	c0,0,1.9,2.6,3.4,4.8c1,1.5,0,0,0,0l1.8,2.5c0.8,1.1,1.3,1.9,1.7,2.4c0.3,0.5,0.8,1.2,1.2,1.9c1.3,1.9,2.5,3.6,3.6,5
	c1.2,1.4,2.1,2.4,2.9,3c1.4,1,3.6,1.5,6.3,1.5h1.3v1.3h-17.7l-16.3-23.2h-10.6v13.2c0,2.9,0.7,5,2.1,6.4c1.4,1.4,3.5,2.1,6.5,2.1
	h1.4v1.3h-29.8v-1.3h1.3c2.9,0,5.1-0.7,6.5-2.1c1.4-1.4,2.1-3.6,2.1-6.5V21.7c0-2.9-0.7-5.1-2.1-6.5c-1.4-1.4-3.6-2.1-6.5-2.1h-1.3
	v-1.2h36.6c5,0,8.9,0.4,11.8,1.1c2.9,0.7,5.2,1.9,6.9,3.6c1,1,1.7,2.1,2.3,3.5c0.6,1.3,0.8,2.6,0.8,3.9c0,3.6-1.8,6.4-5.6,8.6
	c-1.4,0.8-3.2,1.4-5.6,2c-2.3,0.6-3.3,0.9-5.7,1.1 M272.6,34.7H286c3.2,0,5.8-0.4,7.8-1.2c2-0.8,3.5-2,4.6-3.5
	c1-1.6,1.5-3.6,1.5-6.1c0-7.2-4.6-10.8-13.7-10.8h-13.7V34.7z M163.1,11.8h32.8v1.2h-3.8c-2.9,0-5.1,0.7-6.5,2.1
	c-1.4,1.4-2.1,3.6-2.1,6.5v24c0,2.7,0.6,5.1,1.9,7c1.3,2,3.1,3.5,5.4,4.6c2.4,1,5.2,1.6,8.5,1.6c2.9,0,5.5-0.4,8-1.2
	c2.5-0.8,4.5-2,5.9-3.4c2.7-2.8,4-6.6,4-11.6V25.7c0-5.4-1.6-9.1-4.8-11c-0.9-0.6-1.8-1-2.8-1.2c-1-0.2-2.4-0.4-4.3-0.4v-1.2h23v1.2
	c-1.4,0.1-2.6,0.3-3.4,0.6c-0.8,0.3-1.7,0.7-2.6,1.3c-1.3,1-2.3,2.3-3,3.9c-0.7,1.6-1,3.5-1,5.7v18.9c0,5-1.4,8.8-4.1,11.5
	c-1.5,1.4-3.1,2.5-4.8,3.1c-3.6,1.4-7.9,2-12.9,2c-3.7,0-7-0.4-10-1.1c-3-0.7-5.5-1.8-7.4-3.1c-3.7-2.6-5.6-6.2-5.6-11V21.7
	c0-5.7-2.9-8.6-8.6-8.6h-1.9V11.8z M115.6,10.9h1.2l19,41.4c0.6,1.3,1.3,2.3,2.1,3.2c0.8,0.8,1.6,1.4,2.6,1.8
	c0.9,0.4,2.1,0.6,3.3,0.6h1.3v1.3h-27.4v-1.3h3.6c1.8,0,3.1-0.3,3.9-0.7c0.8-0.5,1.2-1.2,1.2-2.3c0-0.6-0.2-1.4-0.5-2.3
	c-0.3-0.9-1-2.5-2.1-4.9c-0.1-0.1-0.2-0.4-0.3-0.7c-0.1-0.3-0.3-0.6-0.4-0.9l-0.8-1.7h-20.1l-1.5,3.5c-0.5,1.2-0.7,2.4-0.7,3.6
	c0,1,0.3,2.1,0.9,3.1c0.6,1,1.3,1.8,2.2,2.3c0.6,0.4,1.2,0.6,1.6,0.7c0.5,0.1,1.2,0.2,2.1,0.3v1.3H87.5v-1.3
	c1.4-0.2,2.5-0.4,3.3-0.8c0.8-0.3,1.7-0.9,2.7-1.7c2.4-1.9,4.7-5.3,7-10.4L115.6,10.9z M112.1,21.9L102.8,43h18.8L112.1,21.9z
	 M9.5,11.8h32.2v1.2h-3.4c-2.9,0-5.1,0.7-6.5,2.1c-1.4,1.4-2.1,3.6-2.1,6.5v36.2H42c2.4,0,4.7-0.6,6.8-1.6c2.1-1.1,4-2.6,5.6-4.5
	c1-1.2,1.8-2.4,2.5-3.6c0.7-1.2,1.4-2.6,2.1-4.2c0.7-1.7,1.3-3.6,1.9-5.8h1.2v20.9H9.5l-0.1-1.2h1.8c5.7,0,8.6-2.9,8.6-8.7V21.7
	c0-5.7-2.9-8.6-8.6-8.6H9.5V11.8z"/>
</svg>
