<svg xmlns="http://www.w3.org/2000/svg" width="1275.11" height="114.26" viewBox="0 0 1275.11 114.26"><g id="Layer_2" data-name="Layer 2"><g id="Calque_1" data-name="Calque 1"><path d="M22.54,21.91V53.64H41.41q7.845,0,12.28-4.42t4.42-11.61a15.056,15.056,0,0,0-4.5-11.35q-4.515-4.35-12.2-4.34H22.54Zm47.51-10.1q11.1,9.765,11.1,25.8,0,15.87-11.1,25.8T41.41,73.35H22.54v38.91H16.56A16.561,16.561,0,0,1,0,95.7V2.05H41.41q17.52-.015,28.64,9.76"/><path d="M186.41,22.41H134.8V44.79h37.92v19.2H134.8V91.88h53.61v20.37H128.82a16.561,16.561,0,0,1-16.56-16.56V2.04h74.15Z"/><path d="M511.66,112.25h-5.98a16.561,16.561,0,0,1-16.56-16.56V2.04h22.54Z"/><path d="M781.11,23.92,765.08,37.11q-11.7-16.2-30.72-16.2-15.87,0-25.64,10.18t-9.77,26.05q0,16.2,10.1,26.55t26.64,10.35q19.2,0,29.06-13.69V71.33H750.93a16.572,16.572,0,0,1-16.57-16.57V51.79h52.93V84.35a57.82,57.82,0,0,1-21.46,21.63,59.914,59.914,0,0,1-31.14,8.27q-24.885,0-41.91-16.45T675.75,57.14q0-24.21,17.03-40.67Q709.805.03,734.69.02q29.73.03,46.42,23.9"/><path d="M901.07,22.41H865.66v89.84h-5.98a16.561,16.561,0,0,1-16.56-16.56V22.41H807.89V2.04h93.18V22.41Z"/><path d="M953.39,31.09q-10.02,10.185-10.02,26.05,0,16.035,9.94,26.13t25.46,10.1q15.195,0,25.3-10.19t10.1-26.05q0-15.87-10.1-26.05T978.77,20.9q-15.375.015-25.38,10.19m66.79-14.61q17.19,16.455,17.2,40.67t-17.2,40.66q-17.2,16.44-41.58,16.45T937.19,97.81q-17.04-16.44-17.04-40.66t17.04-40.67Q954.215.04,978.6.03q24.375.015,41.58,16.45"/><path d="M1258.16,5.71a39.952,39.952,0,0,1,14.45,15.2l-3.81,2.94a16.742,16.742,0,0,1-19.83.2,22,22,0,0,0-12.77-3.98,16.615,16.615,0,0,0-9.77,2.75,9.111,9.111,0,0,0-3.92,7.93,8.787,8.787,0,0,0,2.92,6.93c1.95,1.72,5.26,3.65,9.94,5.76l12.52,5.51q13.86,6.18,20.54,13.61t6.68,18.62q0,15.03-10.86,24.05t-27.72,9.02a48.232,48.232,0,0,1-25.13-6.6,47.735,47.735,0,0,1-17.45-17.79l3.77-2.84a16.472,16.472,0,0,1,20.26.35,28.809,28.809,0,0,0,18.56,6.82q7.35,0,11.52-3.25a10.728,10.728,0,0,0,4.18-8.94,9.718,9.718,0,0,0-1.92-5.93,13.754,13.754,0,0,0-4.34-3.92c-1.62-.89-4.2-2.17-7.76-3.84l-11.86-5.35q-12.855-5.835-19.78-13.36a26.1,26.1,0,0,1-6.93-18.37q0-14.025,10.35-22.63Q1220.365.005,1236.22,0c8.44.04,15.77,1.93,21.94,5.71"/><path d="M621.26,2.04V65.86L557.3,2.18h-7.35V95.7a16.563,16.563,0,0,0,16.57,16.56h5.98V48.23l63.79,63.89h7.52V2.04Z"/><path d="M294.41,2.04V65.86L230.45,2.18H223.1V95.7a16.563,16.563,0,0,0,16.57,16.56h5.98V48.23l63.79,63.89h7.52V2.04Z"/><path d="M425.83,2.04V65.86L361.87,2.18h-7.35V95.7a16.563,16.563,0,0,0,16.57,16.56h5.98V48.23l63.79,63.89h7.52V2.04Z"/><path d="M1140.81,2.04V65.86L1076.85,2.18h-7.35V95.7a16.563,16.563,0,0,0,16.57,16.56h5.98V48.23l63.79,63.89h7.52V2.04Z"/></g></g></svg>