<svg id="Layer_1" data-name="Layer 1" xmlns="http://www.w3.org/2000/svg" viewBox="0 0 677 196"><defs><style>.cls-1{font-size:81.08px;fill:#fff;}.cls-1,.cls-7,.cls-8{font-family:Pacifico-Regular, Pacifico;}.cls-2{letter-spacing:-0.03em;}.cls-3{letter-spacing:0em;}.cls-4{letter-spacing:-0.04em;}.cls-5{fill:#ee864f;}.cls-6{fill:#a8c545;}.cls-7{font-size:67.56px;}.cls-7,.cls-8{fill:#6b2702;}.cls-8{font-size:67.56px;}</style></defs><text class="cls-1" transform="translate(195.04 125.7)"><tspan class="cls-2">B</tspan><tspan class="cls-3" x="64.21" y="0">ench </tspan><tspan class="cls-4" x="227.33" y="0">B</tspan><tspan x="291.14" y="0">akery</tspan></text><path class="cls-5" d="M115.29,97.93c-1.39,7.51-4.53,14.67-9.38,19.78a77.49,77.49,0,0,1-8.17,7.62c-14.49,11.71-33,18.09-50.4,13.8a41,41,0,0,1-10-4c-2.17-2.54-4.41-5.17-6.65-7.86-6.79-8.19-13.56-17.08-18.48-26.56A75.71,75.71,0,0,1,8,91C-3,69.13,16.74,48.92,36.65,43.8a103.48,103.48,0,0,1,11.88-3.07c16.12-3.13,33.09-2.39,47.36,3.39A53.19,53.19,0,0,1,107,54.56a40.42,40.42,0,0,1,5,10.45c.83,3.48,1.45,7,2,10.63s1.14,7.2,1.87,10.8A51.27,51.27,0,0,1,115.29,97.93Z"/><path class="cls-6" d="M63.08,129.1c-3.4-6.67-5.22-14.12-4.49-21a77.31,77.31,0,0,1,1.82-10.8c4.3-17.75,14.92-33.75,31-40.77a40,40,0,0,1,10.17-2.83c3.21.69,6.52,1.39,9.86,2.16,10.17,2.33,20.73,5.21,30.21,9.66a75.7,75.7,0,0,1,9.06,5c21.57,10.5,18.25,38,5.81,53.83a100.19,100.19,0,0,1-7.42,9.46c-10.68,12-24.33,21.58-38.88,25.58a52.72,52.72,0,0,1-14.9-1.49,39.76,39.76,0,0,1-10.15-5.14c-2.72-2.21-5.32-4.61-7.91-7.05s-5.19-4.93-7.89-7.29A50.45,50.45,0,0,1,63.08,129.1Z"/><text class="cls-7" transform="translate(77.63 125.75) rotate(11.17)">B</text><text class="cls-8" transform="matrix(-1, 0, 0, 1, 92.42, 115.46)">B</text></svg>